<?xml version="1.0" encoding="utf-8"?>
<!-- Generator: Adobe Illustrator 22.0.1, SVG Export Plug-In . SVG Version: 6.00 Build 0)  -->
<svg version="1.1" id="Layer_1" xmlns="http://www.w3.org/2000/svg" xmlns:xlink="http://www.w3.org/1999/xlink" x="0px" y="0px"
	 viewBox="0 0 348.9 216.5" style="enable-background:new 0 0 348.9 216.5;" xml:space="preserve">
<style type="text/css">
	.st0{fill:#0E3142;}
</style>
<title>warehouse piece</title>
<path class="st0" d="M0.1,127.9c0-26.5,0.1-53-0.1-79.5c-0.2-3.4,1.2-6.7,3.8-9C16.3,27.1,28.6,14.7,40.9,2.3c3.1-3.2,4.2-3.2,7.4,0
	l35.9,35.9c2.3,2.6,6.2,2.8,8.8,0.5c0.1-0.1,0.3-0.3,0.4-0.4c12-11.9,24-23.9,35.9-35.9c3.3-3.3,4.3-3.3,7.6,0
	c11.3,11.3,22.5,22.5,33.7,33.8c1.2,1.3,2.9,2,4.6,1.9c11.5,0.1,23,0.3,34.5,0.5c1.7,0.1,3.5-0.1,5.2-0.6c1.9-0.7,3.1,0.7,4.3,1.8
	c13,13,26,26.1,39,39.1c1.4,1.4,2,1.6,3.6,0.1c12.9-13,25.9-26,38.8-38.9c3.1-3.1,4.2-3.1,7.2-0.1c13,13,25.9,25.9,38.9,38.9
	c1.5,1.5,2.4,2.9,1.6,5.3c-0.6,1.8,0.5,3.8,0.5,5.9c-0.1,33.9-0.1,67.8,0,101.7c0,5.9,0,11.8,0,17.8c0,4.8-2.1,6.9-6.8,6.9
	c-9.5,0-19-0.1-28.5,0.1c-2.3,0-3-0.7-3-3c0.1-6.1,0.1-12.2,0-18.3c0-5.4-3.5-9.3-8.3-9.3c-5-0.1-8.8,3.7-8.8,9.2
	c-0.1,6.3-0.1,12.5,0,18.8c0,1.9-0.5,2.6-2.6,2.6c-21.8-0.1-43.7-0.1-65.5,0c-2.1,0-2.7-0.9-2.7-2.8c0-6.5,0.1-13,0-19.5
	c0-4.1-3-7.6-7.1-8.2c-4-0.6-7.9,1.7-9.4,5.5c-0.4,1.2-0.5,2.4-0.5,3.7c0,6-0.1,12,0,18c0.1,2.5-0.7,3.3-3.3,3.3
	c-30.9-0.1-61.8-0.1-92.7,0c-2.4,0-3.2-0.7-3.2-3.1c0.1-12.2-0.2-24.3,0.1-36.5c0.3-8.2-6.2-15.1-14.4-15.4c-0.1,0-0.2,0-0.3,0
	c-8.3-0.1-14.6,6.7-14.7,15.5c0,12,0,24,0,36c0,3.5,0,3.5-3.4,3.5H7.7c-5.8,0-7.7-1.8-7.7-7.6C0.1,181.9,0.1,154.9,0.1,127.9z"/>
</svg>
