<?xml version="1.0" encoding="utf-8"?>
<!-- Generator: Adobe Illustrator 22.0.1, SVG Export Plug-In . SVG Version: 6.00 Build 0)  -->
<svg version="1.1" id="Layer_1" xmlns="http://www.w3.org/2000/svg" xmlns:xlink="http://www.w3.org/1999/xlink" x="0px" y="0px"
	 viewBox="0 0 325.7 256.5" style="enable-background:new 0 0 325.7 256.5;" xml:space="preserve">
<style type="text/css">
	.st0{fill:#EF8A22;}
</style>
<title>chapel piece</title>
<path class="st0" d="M92.7,144.4c14.1,0,28.1,0,42.2,0c1.9,0.1,3.7-0.5,5.1-1.7c4.5-3.7,9.1-7.3,13.7-10.9c3.8-3.1,7.5-3.1,11.3-0.1
	c4.6,3.6,9.2,7.2,13.6,11c1.4,1.2,3.2,1.8,5.1,1.8c20.6,0,41.2,0,61.9-0.1c2.6,0,5.1,0.6,7.3,1.9c10.4,5.9,20.8,11.8,31.2,17.5
	c1.3,0.6,2.1,1.9,1.9,3.4c-0.2,3.6,0,7.3-0.1,10.9c0,1.8,0.7,2.8,2.5,2.4c4.2-0.8,6.9,1.4,9.7,4.1c8.5,8.1,17.2,16.1,25.9,24
	c1,0.8,1.6,1.9,1.6,3.1c0,3.1,0.1,6.2,0.1,9.3c0,8.6,0,17.2,0,25.8c0,6.3-3,9.4-9.3,9.7c-3.2,0.1-6.4,0-9.5-0.1
	c-6.6-0.4-13.3,0.5-19.9-0.1c-3.2-0.2-6.4,0.2-9.5,0.2c-11.8-0.1-23.5-0.3-35.3-0.3c-10.5,0-21,0.2-31.5,0.3c-8,0-15.9-0.1-23.9-0.2
	c-6.2,0-12.4-0.1-18.6,0c-2.3,0-3.2-0.7-3.1-3c0.1-3.9-0.1-7.8,0.1-11.7c0.3-2.5-1.4-4.8-3.9-5.3c-3.2-1-6.7-1-9.9,0
	c-2.1,0.5-3.7,2.3-3.8,4.6c-0.3,4.2-0.4,8.5-0.1,12.7c0.1,1.9-0.4,2.7-2.4,2.8c-3.8,0.3-7.6-0.1-11.4-0.1
	c-12.5,0.2-24.9-0.1-37.4,0.2c-11.3,0.3-22.6-0.3-33.9-0.2c-6.5,0-12.9,0.4-19.4,0.1c-2.7-0.1-3.2-1.2-3.2-3.6
	c0.1-9.5,0.1-18.9,0-28.4c0-3.3-1.1-6.1-4.4-7.6c-3.3-1.6-7.1-1.3-10.1,0.7c-1.9,1.2-3.1,3.3-3,5.6c0,9.6-0.1,19.3,0,28.9
	c0,4.4-0.3,4.7-4.6,4.5c-3.3-0.2-6.5-0.1-9.8-0.3c-4.9-0.2-8-3.3-8-8.1c0-22.7,0-45.3,0-68c-0.2-3.7,2.2-7,5.7-8
	c1.8-0.6,2.3-1.6,2.2-3.3c-0.1-5.2,0-10.4,0-15.7c-0.2-2.2,0.6-4.5,2.2-6.1c1.4-1.3,1.6-2.8,1.6-4.5c0-19.6-0.1-39.1,0-58.7
	c0-5.1-0.4-10.2,1.4-15.4c1.4-4.1,1.9-8.9,2.7-13.4c3.1-17.3,6.4-34.6,9.7-51.9C25.8,1.7,25.8,0,28,0s2.3,1.6,2.6,3.1
	c4.4,19.7,8.4,39.4,13.2,59c2.2,8.8,2.6,17.5,2.5,26.4c-0.1,17.4,0,34.9,0,52.3c0,3.5,0,3.5,3.5,3.5L92.7,144.4z"/>
</svg>
