<?xml version="1.0" encoding="utf-8"?>
<!-- Generator: Adobe Illustrator 22.0.1, SVG Export Plug-In . SVG Version: 6.00 Build 0)  -->
<svg version="1.1" id="Layer_1" xmlns="http://www.w3.org/2000/svg" xmlns:xlink="http://www.w3.org/1999/xlink" x="0px" y="0px"
	 viewBox="0 0 309.1 241.7" style="enable-background:new 0 0 309.1 241.7;" xml:space="preserve">
<style type="text/css">
	.st0{fill:#FDBB41;}
</style>
<title>bakery piece</title>
<path class="st0" d="M166.9,81.8c6.6-9.6,13-18.8,19.3-28c11.3-16.4,22.5-32.8,33.8-49.1c4.4-6.4,10.1-6.2,14.6,0.3
	c8.5,12.5,17.1,24.9,25.6,37.4c1.6,2.4,3.3,3.5,6.3,3.5c8.9-0.2,11.8,2.5,11.3,11.4c-0.4,7.5,1.2,13.9,6.1,19.8
	c3.9,4.6,7,9.9,10.5,14.9c3.2,4.6,2.2,8.5-2.8,10.9c-0.7,0.3-1.1,1-1,1.8c0.7,23.1,0.1,46.3,0.3,69.4c0,5.2,0.1,10.4,0,15.6
	c-0.1,2.7,0.8,3.8,3.6,3.6c2.6-0.2,5.2-0.1,7.8,0.4c3.3,0.6,5.9,3.2,6.4,6.6c0.3,1.4,0.4,2.8,0.4,4.2c0,8.8,0.1,17.6,0,26.4
	c0,7.5-3.3,10.7-10.8,10.7H131.4c-4.9,0-4.9,0-4.9-4.9c0-9,0-18,0-27c0.2-14-10.9-25.5-24.9-25.8s-25.5,10.9-25.8,24.9
	c0,0.3,0,0.7,0,1c0,9.3-0.1,18.7,0,28c0,2.8-0.9,3.9-3.8,3.8c-9.2-0.1-18.5,0.5-27.7-0.2c-11.5-0.8-23-0.3-34.5-0.5
	c-6.4-0.1-9.7-3.3-9.8-9.6c-0.1-5-0.1-10,0-15c0.1-6.3,3.5-9.5,9.8-9.6c7.1,0,14.1-0.1,21.2,0c2.6,0.1,3.7-0.8,3.6-3.5
	c-0.1-10.7-0.1-21.3,0-31.9c0-2.7-1-3.8-3.6-3.5c-1.5,0.1-3,0.1-4.6,0c-5.6-0.4-9-4.9-7.9-10.4c6.7-31.1,13.3-62.2,20-93.3
	c0.1-0.7,0.3-1.5,0.4-2.2c0.9-5.7,3.9-8.3,9.7-8.3c10.4,0,20.9,0,31.3,0h75.3c8,0,11,3,11,11c0,5.3,0,10.7,0,16
	C166.5,81,166.7,81.4,166.9,81.8z"/>
</svg>
