<?xml version="1.0" encoding="utf-8"?>
<!-- Generator: Adobe Illustrator 22.0.1, SVG Export Plug-In . SVG Version: 6.00 Build 0)  -->
<svg version="1.1" id="Layer_1" xmlns="http://www.w3.org/2000/svg" xmlns:xlink="http://www.w3.org/1999/xlink" x="0px" y="0px"
	 viewBox="0 0 324.2 266.2" style="enable-background:new 0 0 324.2 266.2;" xml:space="preserve">
<style type="text/css">
	.st0{fill:#219DA4;}
</style>
<title>cottage piece</title>
<path class="st0" d="M228.4,266.1c-28.2,0-56.5,0-84.7,0c-1.6,0-3.3-0.1-4.9-0.3c-3.5-0.7-5.9-3.5-5.9-6.5c0-3.2,2.5-5.9,5.6-6.3
	c3.7-0.3,4.3-2.1,4.2-5.3c-0.1-19,0-38.1-0.1-57.2c0-8-2.4-10.3-10.3-10.3c-12.8,0-25.6,0-38.5,0c-6.7,0-9.7,3-9.7,9.7
	c-0.1,19.6,0,39.3,0,58.9c0,1.8,0.1,3.3,2.3,4.2c2.9,1.2,3.8,5.1,2.9,9c-0.8,3.2-2.9,4.2-6,4.2c-25.9,0-51.8,0-77.6,0
	c-4.3,0-5.7-1.7-5.8-6.5c-0.1-5.1,1.3-6.9,5.7-6.9c2.8,0,3.6-1.2,3.6-3.8c0.2-17.4,0.3-34.8,0.7-52.2c0.5-20.9,0.3-41.9,0.8-62.8
	c0.4-14.6,0.4-29.2,0.5-43.7c0-3.4,1.3-5.3,4.2-6.9c40.2-22.4,80.3-44.8,120.4-67.4c9-5.1,18.1-10,27.1-15.1c2-1.2,3.6-0.9,5.5,0.3
	c22.4,13.3,44.8,26.7,67.3,39.9l2.7,1.6c1.3,0.7,2,0.4,2-1.1c0-2.8,0-5.6,0-8.5c0-1.8-1.3-2.3-2.8-2.6c-3.1-0.8-4.5-2.8-4.3-6
	c0.1-2.2,0-4.5,0-6.7c0.1-4.3,1.9-6.2,6.2-6.5c0.6,0,1.2,0,1.8,0c16.7,0,33.4,0,50.1,0c6.5,0,8.4,1.9,8.5,8.4c0,1.8,0,3.5,0,5.3
	c-0.1,2.5-1.1,4.5-3.5,5.2s-2.7,2.1-2.7,4.3c0,12.6,0.1,25.2,0,37.8c-0.2,2.2,1,4.2,3,5.1c5.7,3.3,11.4,6.9,17.3,10.2
	c2.2,1,3.5,3.3,3.2,5.6c-0.4,32.2-0.4,64.4-1.1,96.7c-0.4,16.9-0.3,33.9-0.6,50.8c0.1,1.6,0.1,3.3-0.1,4.9c-0.8,4.1-0.8,7.4,4.7,8.2
	c2.7,0.4,4,3.2,3.8,6c-0.2,3.2-2.1,5.1-5.1,6c-2.4,0.7-4.9,0.5-7.4,0.5C283.9,266.1,256.1,266.1,228.4,266.1L228.4,266.1z"/>
</svg>
