<?xml version="1.0" encoding="utf-8"?>
<!-- Generator: Adobe Illustrator 22.0.1, SVG Export Plug-In . SVG Version: 6.00 Build 0)  -->
<svg version="1.1" id="Layer_1" xmlns="http://www.w3.org/2000/svg" xmlns:xlink="http://www.w3.org/1999/xlink" x="0px" y="0px"
	 viewBox="0 0 206.4 249.4" style="enable-background:new 0 0 206.4 249.4;" xml:space="preserve">
<style type="text/css">
	.st0{fill:#078249;}
</style>
<title>tavern piece</title>
<path class="st0" d="M99.7,28.8c0-3.8,0-7.5,0-11.2c-0.1-1.4,0.1-2.9,0.6-4.3c0.7-2.5,3-4.3,5.7-4.2c2.6,0,5.2,0,7.9,0
	c4,0,6,1.7,6.7,5.7c0.2,1.2,0.2,2.4,0.2,3.5c0,11.3,0,22.6,0,33.9c0,1.8,0.6,3.6,1.9,4.9c5,5.8,10.4,11.3,15.5,17
	c1.2,1.1,1.8,2.7,1.6,4.4c-0.2,1.7-0.8,3.2-2.9,3.1c-1.9-0.1-1.7,1-1.6,2.3c0.2,1.6,1.1,1.1,2,0.9c2.8-0.6,5.3-0.3,7.5,1.9
	c19.7,19.8,39.5,39.5,59.3,59.2c2.1,1.8,3,4.6,2.3,7.3c-0.3,1.4-1.1,2.4-2.6,2.3c-2.2-0.1-2.4,1.1-2.4,2.8c0,9.8,0,19.6,0,29.4
	c0,5.1-2,7.3-7.2,7.3c-2.5,0-3,1-3,3.2c0.1,13.5,0.1,27,0,40.5c0,1.7,0.3,2.9,2.3,3.3c1.7,0.2,2.9,1.8,2.7,3.5c0,0.1,0,0.2,0,0.3
	c-0.2,1.8-1.8,3.1-3.5,3c-12.2,0.5-24.5,0.5-36.7,0.4c-2,0-2.4-1-2.3-2.7c0-9.3,0-18.6,0-27.8c0-6.5-2.7-9.3-9.2-9.3
	c-3.2,0-6.4,0-9.6,0c-6,0-8.8,2.8-8.8,8.9c0,9.4-0.1,18.7,0,28.1c0,2.3-0.8,3-3,2.9c-12.5-0.9-25-0.2-37.4-0.4c-2,0-4,0-6.1,0
	c-3.4,0-3.4-0.1-3.4-3.4c0-8.8,0-17.6,0-26.3c0-7.3-2.5-9.8-9.7-9.8c-3.2,0-6.4,0-9.6,0c-5.3,0-8.3,3-8.3,8.3c0,9.3,0,18.6,0,27.8
	c0,3.3-0.1,3.4-3.4,3.4c-9.3,0-18.6,0-27.9,0c-0.8,0-1.7,0-2.5-0.2c-1.8-0.3-3-2.1-2.7-3.9c0.2-1.2,1.1-2.2,2.2-2.6
	c0.4-0.2,0.8-0.3,1.2-0.3c4-0.8,4-0.8,4-5c0-12.4,0-24.8,0-37.2c0-1.9-0.4-2.8-2.4-3.4c-3.6-1.1-5.2-3.8-5.2-8.1
	c0-13.8,0-27.7,0-41.5c0-2.4,0-4.1-3.1-4.5c-2.5-0.3-3.3-2.8-3.4-5.1c-0.1-5.3,0-10.6,0-15.9s-0.1-10.8-0.1-16.2c0-1.4-0.7-1.9-2-2
	c-1.1,0-2.6,0.4-3-1.2s0.8-2.4,1.9-3.2c5-4,10.6-7.3,14.9-12.1c1-1.1,2.3-2,2.4-3.7c0.1-0.9,0-1.4-1.1-1.6c-3.8-0.8-4.8-4.1-2.1-7.2
	c1.9-2.2,4-4.3,6-6.5c7.5-8.3,15.2-16.5,22.4-25.1c4.7-5.6,8.6-11.9,12.8-17.9c5.4-7.4,10.5-14.8,15.7-22.2c2.4-3.4,6.1-3.3,8.5,0.2
	c5.4,8,10.8,15.9,16.3,23.8C98.1,27.2,98.4,28.3,99.7,28.8z"/>
</svg>
