<?xml version="1.0" encoding="utf-8"?>
<!-- Generator: Adobe Illustrator 22.0.1, SVG Export Plug-In . SVG Version: 6.00 Build 0)  -->
<svg version="1.1" id="Layer_1" xmlns="http://www.w3.org/2000/svg" xmlns:xlink="http://www.w3.org/1999/xlink" x="0px" y="0px"
	 viewBox="0 0 285.1 272.5" style="enable-background:new 0 0 285.1 272.5;" xml:space="preserve">
<style type="text/css">
	.st0{fill:#6E878A;}
</style>
<title>well piece</title>
<path class="st0" d="M142.6,0.1c13.3,0,26.7,0.1,40,0c2.8-0.1,5.6,0.8,7.9,2.4c21.9,16,43.9,32,65.8,47.9c1.6,1.2,2.7,2.9,3.2,4.8
	c8.3,25.5,16.5,51,24.8,76.5c1,3.2,0.9,6.6-0.2,9.8c-8.1,24.9-16.1,49.7-24.2,74.6c-0.9,2.9-2.7,5.3-5.1,7.1
	c-20.8,15-41.5,30.1-62.1,45.3c-3.6,2.7-8,4.1-12.5,3.9c-25.6-0.2-51.3-0.1-77,0c-3.3,0.1-6.6-0.9-9.3-2.8
	c-21.5-15.7-43.1-31.3-64.7-46.9c-1.8-1.3-3-3.1-3.6-5.2c-8.3-25.7-16.6-51.3-25-77c-0.9-2.9-0.9-6,0.1-8.8
	C9,106.4,17.2,81,25.4,55.7c0.9-2.7,2.6-5,5-6.6c20.2-14.6,40.4-29.3,60.6-44c4.4-3.3,8.9-5.1,14.7-4.9c12.3,0.4,24.7,0.1,37,0.1
	L142.6,0.1z"/>
</svg>
