<?xml version="1.0" encoding="utf-8"?>
<!-- Generator: Adobe Illustrator 22.0.1, SVG Export Plug-In . SVG Version: 6.00 Build 0)  -->
<svg version="1.1" id="Layer_1" xmlns="http://www.w3.org/2000/svg" xmlns:xlink="http://www.w3.org/1999/xlink" x="0px" y="0px"
	 viewBox="0 0 266.2 225.1" style="enable-background:new 0 0 266.2 225.1;" xml:space="preserve">
<style type="text/css">
	.st0{fill:#EF2824;}
</style>
<title>farm piece</title>
<path class="st0" d="M130.3,225.1H8.3c-8,0-8.3-0.3-8.3-8c0-60.5,0-121,0-181.5C0,15.5,14.7,0.2,34.1,0S68.3,15.6,68.4,36
	c0,38,0,76,0,114c0,6.9,0,6.9,7,6.9c15.1,0.1,15.2,0.1,18.2-14.9c4.2-20.6,8.3-41.1,12.3-61.8c0.5-3.5,2.7-6.5,5.8-8.1
	c21.5-12.1,42.9-24.3,64.3-36.6c2.1-1.4,4.8-1.4,6.9,0c21.9,12.8,43.8,25.5,65.6,38.3c2.2,1.3,3.7,3.5,3.9,6
	c4.4,24.6,8.9,49.2,13.4,73.7c0.5,2.8,1.3,5.3-3,5.7c-3.1,0.3-2.4,3.2-2.4,5.2c0,17.5,0,35,0,52.5c0,7.9-0.2,8.1-8.1,8.1
	L130.3,225.1z"/>
</svg>
